<?xml version="1.0" encoding="UTF-8" standalone="no"?>
<svg xmlns:dc="http://purl.org/dc/elements/1.1/" xmlns:cc="http://creativecommons.org/ns#" xmlns:rdf="http://www.w3.org/1999/02/22-rdf-syntax-ns#" xmlns:svg="http://www.w3.org/2000/svg" xmlns="http://www.w3.org/2000/svg" xmlns:sodipodi="http://sodipodi.sourceforge.net/DTD/sodipodi-0.dtd" xmlns:inkscape="http://www.inkscape.org/namespaces/inkscape" version="1.1" id="svg3615" inkscape:version="0.48.4 r9939" sodipodi:docname="Provinces_in_Finland.svg" x="0px" y="0px" width="241.69824" height="424.08347" viewBox="0 0 241.69825 424.08346" enable-background="new 0 0 253.025 428.385" xml:space="preserve"><metadata id="metadata3164"><rdf:RDF><cc:Work rdf:about=""><dc:format>image/svg+xml</dc:format><dc:type rdf:resource="http://purl.org/dc/dcmitype/StillImage"/></cc:Work></rdf:RDF></metadata><defs id="defs3162"/><sodipodi:namedview pagecolor="#ffffff" bordercolor="#666666" borderopacity="1" objecttolerance="10" gridtolerance="10" guidetolerance="10" inkscape:pageopacity="0" inkscape:pageshadow="2" inkscape:window-width="1920" inkscape:window-height="1116" id="namedview3160" showgrid="false" inkscape:zoom="2.577121" inkscape:cx="-40.512193" inkscape:cy="160.66569" inkscape:window-x="-8" inkscape:window-y="-8" inkscape:window-maximized="1" inkscape:current-layer="svg3615" fit-margin-top="0" fit-margin-left="0" fit-margin-right="0" fit-margin-bottom="0"/>
<polygon id="kymenlaakso" points="159.162,397.218 155.398,395.987 153.874,397.52 153.919,399.977 153.37,400.962 151.826,400.914 150.055,399.146 149.021,400.089 147.697,400.135 146.868,399.261 145.991,399.869 143.832,400.316 143.344,398.814 145.667,394.324 145.398,393.914 144.09,393.693 143.392,391.329 141.62,390.99 141.075,388.627 138.926,387.595 138.418,387.352 138.123,385.272 136.328,384.083 136.249,381.841 137.273,379.897 135.151,378.987 135.865,377.625 137.511,377.726 136.932,374.755 136.161,373.09 136.651,371.318 139.534,371.327 142.318,369.443 143.363,366.701 144.588,366.021 146.019,365.444 148.145,368.816 150.138,367.787 150.173,365.729 152.834,365.784 152.842,369.323 156.534,371.154 158.677,370.435 160.017,373.478 157.916,374.259 157.241,376.536 159.151,378.865 158.094,379.497 159.106,381.226 162.487,382.213 163.398,383.813 165.927,385.16 168.791,385.09 169.755,387.046 171.903,387.364 172.94,389.916 175.316,391.131 173.224,393.144 173.159,394.483 171.791,395.388 170.198,394.345 169.561,394.832 169.065,397.059 168.363,398.207 167.3,398.24 166.013,398.427 165.171,397.961 164.397,398.481 163.464,399.358 162.267,397.583 " style="fill:#71a1ff" transform="translate(0.03125,0.02098995)"/>
<polygon id="lappi" points="137.206,18.708 137.937,20.821 136.695,23.083 134.274,36.932 134.763,45.155 133.444,49.785 130.753,49.095 128.314,50.562 124.988,55.455 125.36,60.184 123.077,60.169 122.261,61.836 119.07,57.906 113.298,55.381 107.846,51.342 105.089,52.79 103.629,55.365 99.986,56.652 96.128,58.391 95.209,56.492 90.967,56.052 86.91,53.114 84.568,54.1 84.837,49.548 75.576,30.771 70.103,28.869 66.694,30.546 64.408,33.277 65.75,36.821 65.063,39.216 60.742,35.871 57.682,38.866 61.606,43.94 61.839,47.423 64.845,48.234 69.153,57.177 72.294,58.153 73.448,61.053 76.386,62.49 77.577,65.937 81.88,66.918 87.609,69.545 93.831,75.279 93.843,79.101 94.663,81.349 96.561,81.083 97.353,84.853 100.849,88.493 99.394,90.223 98.243,92.163 98.191,94.604 98.348,102.106 96.355,107.229 97.893,109.998 101.538,110.626 100.609,112.727 101.314,115.142 98.176,116.773 98.031,120.934 104.314,135.455 101.999,138.014 101.548,145.449 99.208,147.479 98.582,149.523 97.789,151.974 98.341,154.188 97.733,155.77 98.771,160.919 101.439,163.507 101.581,166.232 103.801,169.856 103.997,172.469 105.339,176.086 105.373,178.993 106.839,178.823 107.864,177.191 109.144,178.728 111.906,179.75 112.77,181.029 111.799,183.066 112.498,183.875 113.84,183 114.362,184.68 115.452,184.569 116.376,183.815 118.216,184.089 119.313,185.507 120.487,185.398 121.35,186.283 121.271,186.357 123.251,184.348 126.065,182.887 126.487,180.935 133.544,181.338 139.691,177.466 140.154,181.432 152.302,182.484 156.422,181.08 162.038,171.928 163.83,172.744 165.194,172.099 167.026,176.647 175.944,178.057 179.886,176.335 180.035,173.818 178.086,170.881 180.511,169.708 182.906,170.388 183.63,169.799 183.583,167.578 181.925,166.37 181.968,164.076 183.207,163.883 183.808,159.746 181.367,158.72 179.695,155.121 180.341,152.696 182.323,151.912 182.257,149.711 192.077,152.015 198.061,151.246 196.478,147.006 187.952,132.608 188.938,129.357 201.913,105.02 202.404,99.063 196.302,94.496 190.049,81.729 180.488,77.839 177.252,64.347 181.06,57.481 181.916,51.333 180.841,49.511 176.504,49.526 183.636,43.525 182.274,38.749 182.735,34.289 189.594,25.375 185.719,15.495 174.178,9.807 173.909,7.299 170.377,5.077 166.717,-0.021 164.654,1.279 162.614,0.618 161.199,2.671 155.544,7.155 149.015,5.454 145.261,6.771 142.971,12.223 139.108,15.661 " inkscape:label="#lappi" style="fill:#003980" transform="translate(0.03125,0.02098995)"><title id="title3183">Lappi</title></polygon>
<path id="pohjoispohjanmaa" inkscape:connector-curvature="0" d="m 182.28725,149.73099 0.066,2.203 -1.979,0.786 -0.649,2.422 1.674,3.6 2.439,1.025 -0.6,4.138 -1.24,0.194 -0.041,2.29 1.657,1.211 0.046,2.22 -0.724,0.591 -2.394,-0.682 -2.427,1.174 1.951,2.935 -0.148,2.517 -3.943,1.724 -8.921,-1.409 -1.831,-4.551 -1.359,0.649 -1.794,-0.818 -5.618,9.152 -4.117,1.405 -12.148,-1.054 -0.463,-3.964 -6.146,3.873 -7.061,-0.405 -0.421,1.951 -2.812,1.463 -1.901,1.935 c 0.081,0.084 0.163,0.169 0.244,0.252 l 0.074,1.728 0.922,0.004 0.616,-0.566 2.468,4.394 -0.133,1.645 -1.079,1.145 v 1.935 l -0.83,1.017 0.719,1.327 -0.013,4.121 -1.148,1.538 0.583,1.265 1.641,0.947 0.698,1.277 0.414,2.749 1.244,1.269 -0.104,0.748 -0.844,-0.037 -1.905,-1.542 -1.773,-0.153 -0.31,0.885 0.152,1.128 2.584,2.592 0.517,1.554 -0.678,0.617 -1.187,-0.104 -0.231,-1.385 -2.592,-1.505 -2.422,-0.021 -1.253,0.975 -2.831,0.029 -0.951,0.844 -0.558,1.012 -1.633,0.191 -0.679,3.505 -2.529,1.757 -1.344,5.691 -1.674,1.29 -0.116,0.926 -2.302,1.525 -2.675,2.868 -0.4,0.947 -1.013,1.666 -0.033,1.942 -0.811,0.438 -0.992,-0.657 -1.185,1.795 -0.979,0.793 -0.983,1.492 -1.298,1.984 -0.161,3.109 2.62,3.612 1.637,-0.021 1.232,1.107 1.029,-0.559 -1.183,-1.6 1.07,-2.009 2.712,-0.528 1.248,4.977 1.427,0.744 0.661,2.773 1.951,0.765 2.174,6.544 8.185,9.965 2.311,-0.305 0.86,-5.324 1.947,-0.811 6.171,4.236 3.121,0.009 1.252,1.046 1.183,2.492 4.08,-0.029 2.133,-6.039 1.096,-0.656 -0.988,-10.004 6.581,-6.08 4.551,-1.529 -1.435,-1.807 v -9.264 l -2.063,-1.373 -1.55,0.215 -1.914,-1.682 0.298,-1.873 -0.976,-2.163 -1.749,-1.148 3.315,-3.381 1.744,-0.514 0.653,-2.107 3.749,-1.832 1.327,-3.84 3.423,-1.633 0.111,-0.975 4.026,0.93 0.756,-2.038 -0.326,-5.407 -2.266,-1.893 1.679,-2.757 3.687,0.017 1.919,-1.43 2.133,0.277 1.881,1.298 0.806,-4.964 1.968,-1.199 9.561,-1.716 0.442,-4.439 5.411,-2.55 1.149,0.938 1.955,-0.591 1.645,-3.522 0.798,0.662 4.622,0.219 4.856,-0.947 0.736,-2.48 -1.414,-2.34 3.732,-2.484 2.538,-0.24 -1.153,-8.098 -3.902,-11.136 -3.273,-4.828 -2.476,-6.664 -5.986,0.769 -9.821,-2.307 0,0 z m -64.472,56.969 -4.199,1.183 -0.761,1.707 1.306,3.679 1.438,-0.442 1.34,1 1.1,-0.951 -0.901,-3.447 1.253,-0.401 1.566,1.248 1.55,-0.765 0.025,-0.914 -0.649,-0.711 -0.74,0.459 -1.153,0.021 -1.175,-1.666 0,0 z m 5.465,0.558 -0.476,0.591 0.894,0.55 h 0.954 l -0.165,-0.818 -1.207,-0.323 z m -29.382,34.864 -1.343,0.438 -0.107,0.492 -0.27,1.211 1.27,-0.063 0.322,-0.487 0.438,-0.669 -0.31,-0.922 z" style="fill:#2183ff"><title id="title3167">Pohjois-Pohjanmaa</title></path>
<polygon id="kainuu" points="147.962,226.909 147.312,229.017 145.564,229.528 142.25,232.911 143.998,234.058 144.977,236.226 144.676,238.101 146.592,239.778 148.142,239.564 150.205,240.937 150.204,250.202 151.638,252.005 157.349,254.169 164.106,254.683 172.261,259.903 177.574,266.034 181.107,257.896 190.017,259.544 203.277,257.176 206.027,264.177 207.814,262.228 211.145,262.526 210.907,262.293 215.173,259.251 219.688,247.468 218.288,240.958 211.133,236.05 209.09,230.554 209.078,227.548 210.533,226.271 210.619,223.622 209.22,221.87 209.809,219.76 203.142,218.391 201.18,210.842 201.889,208.187 204.434,207.338 205.438,205.259 204.514,204.031 205.642,201.716 204.565,200.47 201.112,200.151 202.556,195.262 202.84,190.976 203.294,189.449 198.418,190.461 193.795,190.243 192.997,189.582 191.353,193.106 189.399,193.693 188.249,192.755 182.841,195.309 182.395,199.747 172.836,201.463 170.868,202.662 170.06,207.624 168.181,206.328 166.046,206.048 164.129,207.479 160.443,207.463 158.764,210.221 161.031,212.117 161.356,217.521 160.601,219.558 156.573,218.63 156.463,219.606 153.038,221.239 151.714,225.079 " style="fill:#adc8ff" transform="translate(0.03125,0.02098995)"><title id="title3169">Kainuu</title></polygon>
<polygon id="karjala" points="181.599,265.557 183.642,265.712 184.163,269.933 185.311,270.864 184.439,272.138 184.957,276.993 186.973,278.183 187.022,281.04 185.227,284.324 186.666,285.615 189.73,292.053 194.016,294.263 191.148,296.343 193.476,299.488 191.027,302.854 187.74,301.422 187.206,303.025 185.484,303.483 187.838,308.679 189.447,309.174 193.124,312.554 193.375,313.952 195.267,315.548 194.469,317.437 196.323,318.764 198.194,317.623 199.304,318.99 199.306,321.189 201.778,325.224 203.245,333.262 205.783,334.372 206.802,336.705 205.963,337.763 207.452,340.785 205.773,345.659 217.617,339.251 219.961,336.824 225.238,327.582 229.037,321.76 231.537,320.782 236.176,312.152 241.667,294.734 240.065,290.69 235.436,286.925 233.904,281.655 230.605,279.378 226.406,276.069 220.483,273.38 218.097,270.011 211.111,262.552 207.797,262.253 206.01,264.2 203.259,257.204 189.999,259.57 181.089,257.923 179.013,262.678 " style="fill:#2183ff" transform="translate(0.03125,0.02098995)"/>
<polygon id="etelasavo" points="198.194,317.623 196.323,318.764 194.469,317.437 195.267,315.548 193.375,313.952 193.124,312.554 189.447,309.174 187.838,308.679 186.514,309.064 183.08,312.457 181.275,312.458 181.28,316.337 179.711,316.143 178.47,318.2 179.9,319.285 179.076,320.973 181.413,320.882 181.577,322.866 183.774,322.329 186.798,326.097 185.842,328.441 179.785,326.078 176.021,326.508 173.723,324.481 170.35,324.281 168.406,320.891 161.67,315.033 158.437,317.224 157.039,315.449 154.215,316.153 153.485,317.25 151.518,316.392 149.427,317.525 148.037,318.488 150.229,320.906 148.289,321.594 147.144,326.455 144.817,325.272 141.579,327.28 139.753,331.01 142.682,336.386 141.822,337.682 142.503,344.826 145.306,348.955 144.615,351.503 142.145,350.713 141.797,351.646 140.477,355.178 140.018,359.403 141.275,360.295 141.368,361.961 143.276,363.747 144.417,363.912 144.571,365.97 146.002,365.394 148.127,368.764 150.121,367.735 150.156,365.679 152.817,365.732 152.824,369.271 156.517,371.1 158.657,370.375 161.492,369.693 163.621,366.061 165.668,365.885 166.89,363.389 169.246,363.442 170.606,361.782 172.822,362.193 179.376,361.622 182.724,357.484 183.723,355.01 185.6,356.441 190.535,356.411 191.173,354.171 195.201,354.353 199.262,353.054 201.77,348.892 204.967,347.811 205.712,345.691 205.773,345.659 207.452,340.785 205.963,337.763 206.802,336.705 205.783,334.372 203.245,333.262 201.778,325.224 199.306,321.189 199.304,318.99 " style="fill:#adc8ff" transform="translate(0.03125,0.02098995)"/>
<polygon id="pohjoissavo" points="170.35,324.281 173.723,324.481 176.021,326.508 179.785,326.078 185.842,328.441 186.798,326.097 183.774,322.329 181.577,322.866 181.413,320.882 179.076,320.973 179.9,319.285 178.47,318.2 179.711,316.143 181.28,316.337 181.275,312.458 183.08,312.457 186.514,309.064 187.838,308.679 185.484,303.483 187.206,303.025 187.74,301.422 191.027,302.854 193.476,299.488 191.148,296.343 194.016,294.263 189.73,292.053 186.666,285.615 185.227,284.324 187.022,281.04 186.973,278.183 184.957,276.993 184.439,272.138 185.311,270.864 184.163,269.933 183.642,265.712 181.599,265.557 179.013,262.678 177.57,266.028 172.261,259.903 164.106,254.683 157.349,254.169 151.638,252.005 147.088,253.539 140.51,259.628 141.493,269.62 140.4,270.276 138.266,276.316 137.335,279.748 138.738,281.659 139.179,288.673 141.885,292.399 140.275,293.477 141.549,294.738 140.489,296.526 136.612,297.03 142.13,303.931 143.756,303.529 146.104,307.115 146.75,310.909 144.16,313.681 144.166,314.804 147.115,316.691 148.547,316.508 149.427,317.525 151.518,316.392 153.485,317.25 154.215,316.153 157.039,315.449 158.437,317.224 161.67,315.033 168.406,320.891 " style="fill:#005cd0" transform="translate(0.03125,0.02098995)"/>
<polygon id="kantahame" points="117.182,365.898 115.656,366.619 116.079,365.035 112.816,363.729 110.49,364.771 108.933,363.215 108.217,364.834 104.938,363.559 101.161,366.52 100.531,366.042 100.073,366.759 100.123,367.616 100.562,368.134 99.395,369.522 90.296,372.976 90.855,377.26 90.179,377.923 87.47,374.963 83.513,376.471 81.6,376.5 81.299,375.178 79.412,373.746 78.051,374.579 78.024,375.672 79.636,376.637 78.558,379.15 76.631,379.543 76.447,381.383 77.537,382.657 76.637,383.463 76.738,385.041 80.088,386.761 82.627,385.494 87.319,389.095 91.477,390.472 97.515,391.512 98.259,393.161 99.689,392.066 101.159,392.768 101.519,394.138 105.212,393.412 105.051,391.515 106.091,390.115 108.413,390.46 112.349,389.941 113.677,389.373 116.317,390.123 116.124,388.948 117.866,387.681 116.661,386.838 115.478,387.844 115.853,386.17 117.222,385.748 116.65,384.305 115.797,382.462 117.126,381.338 114.808,378.52 115.788,374.515 119.422,372.349 119.132,367.405 " style="fill:#71a1ff" transform="translate(0.03125,0.02098995)"/>
<polygon id="paijathame" points="116.65,384.305 115.797,382.462 117.126,381.338 114.808,378.52 115.788,374.515 119.422,372.349 119.132,367.405 117.182,365.898 115.656,366.619 116.079,365.035 112.816,363.729 112.525,356.771 113.666,357.431 123.853,356.475 125.912,349.057 129.006,347.637 130.648,348.418 132.802,344.693 135.204,345.901 137.951,350.135 141.827,351.67 140.493,355.221 140.034,359.448 141.291,360.343 141.385,362.009 143.293,363.796 144.435,363.961 144.588,366.021 143.363,366.701 142.318,369.443 139.534,371.327 136.651,371.318 136.161,373.09 136.932,374.755 137.511,377.726 135.865,377.625 135.151,378.987 137.273,379.897 136.249,381.841 136.328,384.083 138.123,385.272 138.418,387.352 138.986,387.634 138.768,389.474 137.02,390.41 135.343,388.904 132.712,389.479 132.61,387.659 130.845,388.905 129.712,388.719 125.99,389.873 125.06,388.71 124.866,388.819 123.94,385.459 123.314,384.901 121.219,387.095 118.517,383.809 " style="fill:#2183ff" transform="translate(0.03125,0.02098995)"/>
<path style="fill:#2283ff" d="m 33.9375,390.17723 -0.8125,0.0625 0.21875,4.1875 1.09375,0.25 0.90625,-2.40625 -1.40625,-2.09375 z m -2.78125,2.1875 -1.0625,0.6875 -0.15625,1.03125 0.84375,1.96875 1.03125,-0.59375 0.34375,-1.53125 -1,-1.5625 z m -22,0.84375 -1.625,0.71875 -1.65625,2.1875 1.90625,0.25 0.59375,1.03125 0,0.8125 0.25,0.59375 -0.6875,0.78125 -0.8125,-0.1875 0.3125,-1.96875 -1.09375,-0.71875 -1,1.28125 -1.21875,0.1875 -1.15625,-0.375 -2.53125,1.09375 -0.4375,1.125 0.6875,0.75 -0.375,1.71875 0.71875,1.625 1,-0.0625 0.34375,-1.25 0.71875,0.15625 0.875,0 1.28125,1.46875 0.21875,1.59375 0.75,0.84375 1.25,0.125 0.625,0.78125 0.21875,1.40625 1.59375,-0.375 1.84375,1.3125 0.59375,1.40625 0.84375,-0.15625 0.34375,1.375 1.3125,-0.90625 0.125,-1 -0.78125,-0.8125 0.4375,-1 0,-0.875 -2.15625,-1.15625 -0.65625,0.4375 -1.09375,-0.0312 -0.28125,-0.46875 1.125,-2.625 -1.34375,-1 0.75,-1.3125 0.90625,0.0937 1.46875,1.59375 2.3125,-0.375 0.96875,-2.84375 -1.3125,-1.59375 -0.1875,-1.375 -1.09375,-0.46875 -0.84375,-1.4375 -1.9375,-0.34375 -2.09375,-2.03125 z m 24.21875,2.0625 -1.375,1.1875 0.375,1.9375 0.875,0.5 0.6875,-0.625 0.3125,-1.9375 -0.875,-1.0625 z m -15.46875,1.25 -0.78125,0.59375 -0.03125,0.9375 2.96875,0.21875 -0.03125,-0.6875 -2.125,-1.0625 z m 9.03125,0.78125 -0.75,0.53125 -0.375,1.1875 0,0.0625 0.34375,0.4375 0.96875,-0.21875 0.53125,-1.3125 -0.71875,-0.6875 z m 2,0.0312 -0.4375,1.34375 0.6875,0.75 1.03125,-0.3125 0,-1.25 -1.28125,-0.53125 z m -9.78125,1.9375 -0.75,0.59375 -0.9375,0.9375 0.8125,0.8125 -0.125,1.96875 0.6875,0 1.0625,-1.5 -0.65625,-1 0.40625,-0.96875 -0.5,-0.84375 z m 8.1875,1.28125 -1.15625,0.5625 0.03125,1.15625 0.125,0.5625 0.625,0.4375 1.3125,-1.1562 -0.25,-0.59375 -0.6875,-0.96875 z m -3,1.8125 -0.40625,0.71875 0.40625,1.59375 1.3125,-0.0312 -0.1875,-0.84375 0,-0.5625 -0.28125,-0.71875 -0.84375,-0.15625 z m -8.5,2.28125 -1.28125,1.53125 0.21875,2.03125 1.4375,0 -0.4375,-0.96875 0.78125,-1.40625 -0.21875,-1.09375 -0.5,-0.0937 z m 7.1875,0 -0.75,1.125 0.71875,0.78125 0.34375,1.59375 1.5625,0.125 0.0625,-0.6875 0.15625,-0.40625 -0.8125,-1.75 -1.28125,-0.7812 z m -2.625,2.53125 -0.59375,0.65625 0.6875,0.78125 1.59375,0.15625 -0.03125,-0.625 -0.875,-0.84375 -0.78125,-0.125 z m -1.46875,2.28125 -1,0.75 -1.84375,1.5 0.40625,0.65625 2,0.0625 2.71875,-0.78125 0.875,-1.09375 -0.65625,-0.78125 -2.5,-0.3125 z m 10,4.6875 -1.8125,0.84375 -0.34375,0.96875 1.71875,1.28125 0.6875,-1.0625 0.78125,0 0.21875,-0.71875 0.28125,-0.4375 -1,-0.5 -0.53125,-0.375 z" id="ahvenanmaa" inkscape:connector-curvature="0"/>
<path style="fill:#003980" d="m 41.5625,368.55223 -1.09375,0.59375 0.59375,3.15625 1.4375,1.5 -0.3125,1.03125 -0.90625,-0.71875 -0.84375,-1.71875 -0.96875,0.0625 -0.5,0.53125 0.84375,0.90625 -0.03125,1.03125 -1.78125,0.375 0.125,0.75 2,1.1875 -0.21875,0.6875 -0.40625,0.28125 -0.25,0.71875 0.3125,1.21875 0.09375,1.71875 0.65625,1.09375 -0.03125,2.375 1.4375,3.78125 1.90625,1.6875 0.5625,2.46875 1.46875,-0.15625 0.65625,-2.84375 2.6875,-1.40625 0.875,0.375 -0.90625,2.375 -1.03125,-0.125 -0.96875,1.375 -0.09375,1.03125 2.1875,-0.53125 2.8125,-0.0937 1.0625,1.03125 -0.0625,1.0625 -0.96875,-0.0625 -0.4375,0.53125 1.4375,1.3125 1.1875,-0.75 0.46875,0.375 -0.25,2.75 1.0625,0.0937 1.3125,1.21875 5,-0.9375 0.71875,-0.65625 1.1875,0.90625 -1.9375,3.09375 0,1.28125 2.09375,-0.0312 1.28125,1.1562 3.03125,-0.875 4.6875,-3.625 0.75,1.21875 -1.125,1.375 -2.75,3.375 0.5,2.78125 0.90625,0.53125 1.21875,0.71875 -0.09375,0.625 3.3125,-0.0625 2.5,-2.625 1.25,1.03125 3.8125,-1.875 2.09375,0.96875 -0.125,-4.5 1.96875,-0.6875 0.375,-2.625 1.3125,-0.125 -0.4375,-2.53125 -1.34375,-0.5625 0.1875,-1.8125 3.0625,-0.4375 1.46875,-3.25 -0.71875,-1.25 0.625,-0.9375 -4.15625,-1.375 -4.6875,-3.59375 -2.53125,1.25 -3.34375,-1.71875 -0.125,-1.5625 0.90625,-0.8125 -1.09375,-1.28125 0.1875,-1.84375 1.9375,-0.375 1.0625,-2.53125 -1.59375,-0.9375 0,-1.03125 -1.03125,0.125 0.1875,-1.375 -2.5625,0.5 -1.5625,-1.84375 -2.0625,-0.6875 -0.25,3.5625 -3.3125,-0.90625 -3.09375,0.96875 0.6875,0.84375 -3.5,0.9375 -2.5,-0.46875 -2.09375,1.875 -0.75,-1.09375 -3.5625,-0.34375 -1.375,-3.875 -1.5,-1.375 -2.78125,2 -0.15625,-3.40625 -1.71875,1.28125 -1.46875,0.125 -1.5,-2.09375 -0.59375,-0.875 z m -3.09375,17.46875 -1.28125,0.90625 0.15625,1.40625 0.34375,0.34375 0.875,0.90625 0.90625,-0.90625 -0.0625,-0.84375 -0.0625,-1.15625 -0.875,-0.65625 z m -1.03125,3.3125 -0.46875,0.375 0.3125,2.5625 0.21875,0.25 0.46875,0.65625 1.15625,0 0,-0.5625 0,-0.75 -1.6875,-2.53125 z m 2.90625,0.34375 -0.59375,0.5 0,1.625 1.53125,2 0.9375,0.1875 0.15625,-0.5 0.40625,-1.21875 -0.90625,-0.875 -0.03125,-0.0937 -0.03125,-0.125 -1.46875,-1.5 z m 8.59375,4.78125 -0.5625,0.5 -0.21875,1.65625 1.0625,2.375 1.21875,1.03125 -0.28125,1.40625 -0.0625,0.84375 1.28125,0.21875 0.9375,-0.96875 0.03125,-0.3125 0.0625,-0.8125 0.28125,-1.1875 -0.96875,-1.375 -1.28125,-1.84375 -0.15625,-0.71875 -1.34375,-0.8125 z m -12.71875,0.40625 -0.6875,0.46875 -0.0625,0.375 -0.125,0.96875 0.96875,0.75 0.25,-0.53125 0.3125,-0.71875 -0.65625,-1.3125 z m 8.96875,0.0625 -2,1.25 0,1.0625 0.28125,0.28125 0.25,0 0.625,-0.0312 0.34375,-0.59375 0.34375,-0.46875 0.4375,-0.625 -0.28125,-0.875 z m -4.625,0.8125 -0.90625,0.0937 -0.1875,1.6875 0.15625,0.25 0.40625,0.5625 0.375,-0.59375 0.1875,-0.0625 0.25,-0.0937 -0.28125,-1.84375 z m -2.21875,1.75 -0.875,0.125 -0.34375,0.9375 0.15625,0.21875 0.40625,0.53125 1.21875,-0.125 0.09375,-0.21875 0.15625,-0.28125 -0.8125,-1.1875 z m 7.40625,0.875 -0.375,0.5625 -0.15625,0.78125 0.375,0.3125 0.84375,0.78125 1.34375,-0.3125 -0.03125,-0.3125 -0.0625,-0.40625 -0.15625,-0.84375 -1.78125,-0.5625 z m 15.84375,2.21875 -3.6875,0.90625 -1.375,0.15625 -1.5625,-0.40625 -1,1.875 0.3125,1.25 1.46875,0.40625 -0.21875,1.1875 0.28125,0.3125 0.625,0.71875 1.25,-0.125 1.9375,-2.1875 2.625,-3.03125 -0.65625,-1.0625 z m -20.6875,0.96875 -0.96875,0.1875 -0.75,0.75 -0.09375,0.3125 -0.4375,0.4375 0.1875,0.125 0.40625,0.28125 0.71875,0.15625 0.34375,-0.375 0.46875,-0.53125 0.125,-1.34375 z m 2.28125,0.125 -0.75,0.4375 0,0.8125 -0.0625,1.90625 0.75,0.59375 0.625,-0.34375 0.875,-0.46875 -1.4375,-2.9375 z m -5.34375,1.59375 -0.875,0.125 -0.40625,2.375 2.625,0.90625 0.8125,-0.34375 0.75,-0.25 0.03125,-0.3125 0.09375,-0.71875 0.0625,-0.9375 -0.96875,0 -1.375,0.0625 -0.75,-0.90625 z m 32.59375,1.78125 -7.5625,1.8125 -1.1875,-0.84375 -0.5625,0.5625 -0.03125,0.78125 -0.78125,0.6875 0.78125,0.96875 0.15625,0.875 -2.25,1.71875 -0.375,1.90625 1.0625,1.625 2.03125,0.125 1.34375,-0.84375 2.03125,0.84375 1.65625,-0.25 0.8125,-1.125 0,-0.375 -0.03125,-0.90625 2.03125,-2.1875 -0.5,-1.0625 -0.65625,-1.5 2.03125,-2.8125 z m -21.46875,0.4375 -2.375,0.0312 -0.34375,1.40625 -0.3125,2.1875 1.03125,0.40625 0.375,-0.53125 0.875,-1.3125 1.5,-0.375 0.25,-0.375 0.34375,-0.46875 -1.34375,-0.96875 z m -4.125,0.1875 -1.375,0.0937 -1.375,1.5625 -0.125,0.25 -1.03125,1.03125 0.78125,0.96875 1.71875,-0.0625 0.8125,-0.59375 0.09375,-0.125 0.21875,-0.375 0.09375,-0.78125 0.09375,-0.4375 0.125,-0.59375 -0.03125,-0.9375 z m 8.3125,0.0312 -0.5625,0.3125 -1.4375,0.78125 0.03125,1.34375 0.84375,-0.0937 1.15625,-0.15625 0.71875,-1.71875 -0.75,-0.46875 z m 6.34375,1.03125 -1.1875,0.0625 -1.75,2.09375 0.625,0.65625 0.28125,0 0.75,0.0312 0.75,-0.90625 0.0625,0.0625 0.125,0.0312 1.09375,-1.5625 -0.75,-0.46875 z m -10.3125,1.40625 -0.375,0.375 -0.90625,0.84375 0.4375,0.71875 1.34375,0.0312 1.84375,0.0312 0.25,-0.71875 -2.59375,-1.28125 z m 21.125,2.71875 -1.03125,1 0.125,0.25 0.1875,0.34375 1.15625,-0.1875 0.46875,-1.09375 -0.28125,-0.0937 -0.625,-0.21875 z m -1.09375,2.09375 -0.5625,0.46875 -0.71875,0.625 0.53125,1.53125 1,-0.46875 0.25,-0.15625 0.59375,-0.34375 -1.09375,-1.65625 z m -22.9375,2.1875 -0.59375,0.90625 -0.625,0.71875 0.46875,1.34375 0.3125,0 0.8125,0.0937 0.40625,-0.5625 0,-0.75 0,-1.03125 -0.78125,-0.7187 z M 59,415.48973 l -0.46875,0.375 -0.09375,0.0625 -0.15625,0.15625 -0.40625,0.34375 0.28125,1.4375 0.625,0 0.875,0.0312 0.1875,-0.84375 0.0625,-1 L 59,415.48968 z m 3.03125,0.5 -0.1875,0.15625 -0.4375,0.34375 0.6875,1.46875 0.8125,0.15625 1.09375,0.21875 0.46875,-0.65625 -1.03125,-1.46875 -1.40625,-0.21875 z m -1.84375,3.5625 -1.6875,1.75 0.65625,0.28125 0.875,0.375 1.625,-1.125 0.09375,-1.1875 -0.46875,-0.0312 -1.09375,-0.0625 z m -17.96875,0.5625 -1.375,1.46875 1.03125,0.53125 0.21875,-0.1875 0.5625,-0.46875 1.03125,-0.6875 -0.09375,-0.25 -0.09375,-0.34375 -1.28125,-0.0625 z" id="varsinaissuomi" inkscape:connector-curvature="0"/>
<polygon id="etelapohjanmaa" points="54.893,303.121 51.681,306.604 49.112,314.203 50.121,316.698 51.573,317.178 51.649,320.915 52.526,321.292 53.478,322.681 51.48,323.956 51.85,325.864 50.764,326.723 50.335,330.517 52.104,332.136 56.514,332.918 61.599,328.593 63.156,328.587 65.888,324.393 67.945,324.322 69.707,320.726 72.129,321.93 73.619,321.941 77.425,321.954 81.584,319.683 83.481,316.337 87.146,317.769 87.658,316.473 90.42,316.866 93.826,314.062 95.35,315.031 95.74,318.237 97.24,318.86 99.922,315.773 103.401,316.277 104.205,314.8 107.133,314.755 107.885,309.646 106.888,308.283 107.617,307.244 106.929,305.139 104.656,299.172 105.851,298.235 104.11,295.899 103.487,290.848 104.858,288.941 100.965,287.101 102.684,286.392 99.338,282.163 96.087,281.188 92.486,276.451 90.611,274.154 88.291,273.038 85.123,272.994 83.923,276.518 82.335,277.911 80.046,277.253 75.709,278.017 71.593,280.022 71.545,283.247 72.603,283.283 73.445,286.978 71.286,286.952 66.762,294.796 67.094,297.042 63.202,301.134 58.355,299.521 55.25,296.282 54.372,297.308 53.906,302.125 " style="fill:#2183ff" transform="translate(0.03125,0.02098995)"/>
<polygon id="keskisuomi" points="142.148,303.936 136.628,297.031 140.506,296.526 141.567,294.737 140.291,293.476 141.903,292.397 139.197,288.667 138.738,281.659 137.352,279.736 138.266,276.316 134.184,276.345 133.005,273.855 131.75,272.81 128.631,272.8 122.457,268.563 120.51,269.374 119.654,274.696 117.271,274.966 115.651,275.242 112.476,278.625 112.14,287.813 109.111,287.153 105.635,288.435 104.822,288.97 103.487,290.848 104.11,295.899 105.851,298.235 104.656,299.172 106.964,305.232 107.617,307.244 106.888,308.283 107.885,309.646 107.133,314.755 104.205,314.8 103.401,316.277 99.922,315.773 97.216,318.853 97.23,322.575 100.055,324.265 101.538,323.985 102.558,326.899 105.275,327.439 106.97,326.831 109.932,329.977 110.875,333.437 108.973,336.478 108.406,335.471 106.635,338.039 111.142,343.671 112.071,343.834 112.059,344.678 111.11,344.737 110.821,343.931 110.093,344.417 110.471,345.703 110.323,347.295 111.322,347.894 111.642,347.713 112.955,348.494 111.674,349.39 111.107,350.639 111.391,352.33 113.823,354.337 113.666,357.431 123.853,356.475 125.912,349.057 129.006,347.637 130.648,348.418 132.802,344.693 135.204,345.901 137.951,350.135 141.814,351.686 142.161,350.753 144.633,351.544 145.323,348.993 142.521,344.86 141.839,337.711 142.698,336.414 139.77,331.035 141.597,327.303 144.834,325.292 147.16,326.477 148.306,321.612 150.245,320.925 148.055,318.504 149.444,317.541 148.564,316.522 147.131,316.708 144.183,314.817 144.178,313.694 146.768,310.92 146.121,307.123 143.773,303.535 " style="fill:#71a1ff" transform="translate(0.03125,0.02098995)"/>
<polygon id="pirkanmaa" points="108.933,363.215 110.49,364.771 112.816,363.729 112.525,356.771 113.666,357.431 113.823,354.337 111.391,352.33 111.107,350.639 111.674,349.39 112.955,348.494 111.642,347.713 111.322,347.894 110.323,347.295 110.471,345.701 110.093,344.417 110.821,343.931 111.11,344.737 112.059,344.678 112.071,343.834 111.142,343.671 106.635,338.039 108.406,335.471 108.973,336.478 110.875,333.437 109.932,329.977 106.97,326.831 105.275,327.439 102.558,326.899 101.538,323.985 100.055,324.265 97.23,322.575 97.24,318.86 95.74,318.237 95.35,315.031 93.826,314.062 90.42,316.866 87.658,316.473 87.146,317.769 83.481,316.337 81.584,319.683 77.425,321.954 73.636,321.923 73.637,325.929 71.585,326.918 71.47,330.375 69.076,330.606 67.861,332.643 69.687,333.54 69.689,335.356 71.725,336.879 72.534,339.755 71.388,343.761 69.66,343.198 69.071,346.248 70.55,347.674 68.726,349.214 67.706,352.358 64.312,353.818 66.486,357.02 65.266,357.945 65.385,359.716 67.114,363.942 70.573,365.091 71.704,363.859 73.681,365.877 72.778,369.048 74.406,371.863 73.07,372.073 74.615,373.894 77.18,373.394 77.002,374.779 78.051,374.579 79.412,373.746 81.299,375.178 81.6,376.5 83.513,376.471 87.47,374.963 90.179,377.923 90.855,377.26 90.296,372.976 99.395,369.522 100.562,368.134 100.123,367.616 100.073,366.759 100.531,366.042 101.161,366.52 104.938,363.559 108.217,364.834 " style="fill:#adc9ff" transform="translate(0.03125,0.02098995)"/>
<path id="satakunta" inkscape:connector-curvature="0" d="m 41.97125,363.23999 0.773,0.485 0.117,0.543 0.086,0.396 -0.514,0.687 -0.528,0.04 -0.214,0.017 -0.349,-1.316 0.191,-0.366 0.438,-0.486 0,0 z m 2.799,-18.633 0.647,0.184 0.751,1.378 0.549,1.007 -0.62,0.689 -0.939,-0.005 h -0.382 l -0.914,-0.972 0.68,-0.688 0.228,-1.593 0,0 z m -2.588,24.837 0.907,-1.823 0.972,-5.543 0.995,0.664 0.505,-0.642 -0.104,-0.871 0.624,-3.226 -1.357,-3.183 0.256,-0.4 0.621,-0.202 0.929,0.363 0.715,-0.131 -0.48,-1.175 -1.485,-0.783 -0.115,-1.048 1,0.039 1.576,0.465 -0.045,-0.593 -0.87,-0.704 -0.935,-1.898 0.395,-0.749 0.738,0.053 1.174,1.339 0.881,0.03 -1.706,-3.833 0.001,-3.476 -1.772,-2.296 0.356,-0.785 1.038,-0.109 0.066,-0.616 -0.796,-0.62 -0.489,-3.119 -1.181,-0.725 -0.271,-1.01 2.001,-1.824 4.044,-0.475 1.768,1.619 4.41,0.782 5.085,-4.325 1.558,-0.007 2.731,-4.193 2.057,-0.07 1.763,-3.597 2.422,1.203 1.507,-0.007 0.002,4.006 -2.052,0.99 -0.116,3.456 -2.394,0.232 -1.215,2.035 1.826,0.897 0.002,1.816 2.035,1.523 0.81,2.876 -1.146,4.005 -1.729,-0.562 -0.589,3.049 1.479,1.427 -1.824,1.539 -1.02,3.146 -3.395,1.458 2.174,3.203 -1.22,0.925 0.119,1.771 1.729,4.227 3.458,1.148 1.132,-1.231 1.977,2.019 -0.903,3.17 1.629,2.815 -1.337,0.211 -2.058,-0.69 -0.267,3.563 -3.3,-0.904 -3.109,0.944 0.682,0.858 -3.498,0.929 -2.504,-0.471 -2.093,1.884 -0.735,-1.082 -3.553,-0.344 -1.383,-3.889 -1.517,-1.369 -2.772,2.003 -0.144,-3.424 -1.723,1.298 -1.476,0.113 -1.471,-2.069 0,0 z" style="fill:#005dd0"/>
<path id="keskipohjanmaa" inkscape:connector-curvature="0" d="m 117.30225,274.98699 -8.112,-9.93 -2.176,-6.541 -1.951,-0.769 -0.66,-2.771 -1.427,-0.743 -1.246,-4.977 -2.715,0.527 -1.069,2.008 1.181,1.602 -1.027,0.561 -1.233,-1.111 -1.636,0.021 -2.62,-3.615 -1.255,0.219 -1.564,-1.492 -1.057,0.754 -0.14,6.051 -6.323,0.285 -0.773,1.131 -0.872,0.02 -0.79,-0.951 -1.727,-0.01 c -0.043,0.065 -0.054,0.006 -0.097,0.07 l 1.888,5.194 0.823,-1.115 4.325,3.229 3.054,-1.489 0.801,1.19 1.405,-1.09 4.864,3.912 -1.107,1.188 -2.283,0.052 -1.423,-1.159 -1.817,1.176 1.199,2.121 1.113,-0.318 2.701,4.903 -1.031,3.441 3.595,4.647 3.251,0.977 3.346,4.229 -1.719,0.709 3.894,1.842 0.776,-0.508 3.476,-1.282 3.029,0.66 0.336,-9.188 3.175,-3.383 1.618,-0.277 0,0 z" style="fill:#005cd0"/>
<path d="m 118.5625,383.83348 -1.875,0.5 0.5625,1.4375 -1.4375,0.40625 -0.3125,1.6875 1.1875,-1 1.21875,0.84375 -1.75,1.25 0.1875,1.1875 -2.625,-0.75 -1.34375,0.5625 -3.9375,0.53125 -2.3125,-0.34375 -1.03125,1.375 0.15625,1.90625 -3.6875,0.71875 -0.375,-1.34375 -1.46875,-0.71875 -1.4375,1.09375 -0.75,-1.65625 -6.03125,-1.03125 -0.625,0.9375 0.71875,1.25 -1.46875,3.25 -3.0625,0.4375 -0.1875,1.8125 1.34375,0.5625 0.4375,2.53125 -1.3125,0.125 -0.375,2.625 -1.96875,0.6875 0.125,4.5 -2.09375,-0.96875 -3.8125,1.875 -1.25,-1.03125 -2.5,2.625 -3.3125,0.0625 -0.53125,4.6875 -1.21875,-0.625 -1.46875,0.0625 -0.3125,1.5625 1.28125,1.6875 2.34375,0.40625 0.625,-0.625 0.0625,-2.09375 0.71875,-0.59375 0.65625,1 -0.34375,2.53125 -0.75,0.90625 -3.65625,1.28125 -0.875,0.96875 0.9375,1.15625 2.71875,-1.125 3.3125,0 1.71875,-1.4375 0,-0.96875 1.3125,-1.4375 1.59375,0.1875 1.03125,0.75 2.125,-0.46875 1.65625,0.375 0.84375,-0.65625 -0.34375,-1.21875 2.40625,-0.25 4.84375,-2.0625 4,-0.0937 2.9375,-1.625 -0.125,2.5625 0.625,0 0.90625,-0.8125 0.8125,0.46875 -1.71875,2.25 1.25,0.0937 3.90625,-4.875 -0.0312,-1.3125 0.28125,-0.6875 0.71875,0.6875 3.53125,-1.21875 1.3125,0.90625 1.875,0 0.625,-1 0.28125,1.5625 1.4375,-1.21875 -0.21875,-1.65625 1.40625,0.4375 1.03125,-1.375 0.3125,-0.9375 0.75,-0.21875 1.78125,-0.46875 3.21875,-0.0937 0.8125,-1 0.0625,-1.75 2.09375,-0.25 0.53125,1.9375 1.65625,2.09375 0.65625,0.125 1,-1.0625 1.0625,0.65625 0.5625,-0.71875 -0.59375,-1.96875 0.53125,-0.4375 1.125,2.25 0.65625,-0.25 -0.125,-1.65625 0.65625,-0.25 1,0.5 0.75,-0.3125 -1.21875,-2.1875 -0.375,-1.40625 -1.25,-1.6875 0.1875,-1.0625 2.0625,1.96875 1.4375,1.46875 0.65625,1.5 0.8125,-0.0625 -0.5,-1.71875 1.78125,0.0625 1.15625,1.46875 0.0937,-1.4375 1,0.0312 1.75,-1.59375 -0.40625,-1.5625 2.3125,-4.5 -0.25,-0.40625 -1.3125,-0.21875 -0.6875,-2.34375 -1.78125,-0.34375 -0.5625,-2.375 -2.0625,-1 -0.21875,1.84375 -1.75,0.9375 -1.6875,-1.5 -2.625,0.5625 -0.0937,-1.8125 -1.78125,1.25 -1.125,-0.1875 -3.7188,1.15625 -0.9375,-1.15625 -0.1875,0.0937 -0.9375,-3.34375 -0.625,-0.5625 -2.09375,2.1875 -2.6875,-3.28125 z m 19.28125,20.375 -0.25,0.90625 0.125,0.375 0.875,0.53125 0.8125,-0.4375 -0.625,-1.375 -0.9375,0 z m -11.5625,1.375 -0.65625,0.1875 0.0625,2.3125 0.0625,1.75 0.625,0.53125 0.6875,-0.71875 0,-0.46875 0.1875,-0.21875 0.0312,-1.03125 -0.71875,-0.875 -0.28125,-1.46875 z m 10.625,0.34375 -1.71875,0.84375 0.84375,0.84375 1.1875,-0.25 -0.3125,-1.4375 z m -16.625,1.9375 -0.625,0.53125 0.28125,0.34375 0.3125,0.5 1.34375,-0.0937 0.4375,-0.46875 0.3125,-0.59375 -0.75,-0.0625 -0.40625,-0.15625 -0.90625,0 z m 4.09375,0.28125 -0.78125,0.71875 0,1.21875 0.21875,0.5 0.84375,-0.125 -0.28125,-2.3125 z m 7.28125,0 -0.46875,0.375 -0.75,0.21875 -0.15625,0.84375 0.0625,0.59375 1.6875,0.21875 0.84375,-0.875 -0.34375,-0.6875 -0.875,-0.6875 z m -40.625,8.8125 -0.90625,0.53125 -0.71875,1.28125 1.09375,0.5625 1.15625,-0.96875 1.40625,-1.1875 -0.75,0 -0.4375,-0.21875 -0.84375,0 z m -9.25,4 -1.25,0.34375 -0.96875,-0.21875 -0.71875,0.84375 0.53125,0.375 0.71875,0.1875 0.65625,-0.375 0.59375,-0.15625 0.4375,-1 z" id="uusimaa" inkscape:connector-curvature="0"/>
<path d="m 78.03125,255.36473 -1.21875,1.8125 -1.28125,0.875 0.34375,2.125 -0.1875,1.5625 -1.59375,1 -0.25,1.15625 -0.875,0.375 -1.28125,1.09375 -0.125,0.65625 -1.1875,0.84375 -0.5,2.1875 -0.875,-1.125 -0.90625,0.5 -0.65625,2.84375 -1,0.0312 -0.53125,0.7188 0.3125,1 0.75,0.75 1.59375,3.59375 -0.59375,1.40625 -1.46875,0.0312 -1.0625,2.03125 -1.71875,0.40625 -4.5625,-1.65625 -3.25,1.375 -1.53125,0.0312 -0.625,-1.90625 -1.0625,1.09375 -0.09375,2.84385 -1.125,1.375 0.15625,1.0625 1.3125,1.125 0.40625,1.03125 -0.65625,0.25 -1.21875,-0.3125 -0.84375,0.28125 -1.3125,-0.875 -0.625,1 1.40625,1.0625 0.59375,1.25 -0.15625,1.5625 -1.375,1.3125 0.15625,1.375 -0.5625,0.5625 -1.46875,0.1875 -0.09375,-0.71875 -1.46875,0.46875 -0.375,2.40625 -0.75,0.8125 -1.5,-0.0937 -0.15625,0.65625 0.875,1 -0.125,1.15625 -0.84375,0.75 -0.65625,0.78125 -0.40625,2.71875 0.5,0.59375 0.875,-0.75 0.6875,0.5 0.15625,0.875 -1.3125,2.125 -0.28125,2.4687 0.59375,0.65625 -0.78125,3.15625 0.84375,1.3125 2.875,0.125 -0.09375,0.9375 -1.34375,1.8125 0,1.46875 1.96875,0.78125 0.21875,1.0625 -1.5625,1.6875 0.0625,1.5 -1.03125,1.65625 -0.96875,3.625 1.0625,1.71875 0.0625,0.3125 2,-1.8125 4.0625,-0.46875 0.40625,-3.8125 1.09375,-0.84375 -0.375,-1.90625 2,-1.28125 -0.9375,-1.40625 -0.875,-0.375 -0.09375,-3.71875 -1.4375,-0.5 -1,-2.5 2.5625,-7.59375 3.21875,-3.46875 -1,-1 0.46875,-4.8125 0.875,-1.03125 3.09375,3.25 4.84375,1.59375 3.90625,-4.09375 -0.34375,-2.25 4.53125,-7.84375 2.15625,0.0312 -0.84375,-3.6875 -1.0625,-0.0312 0.0625,-3.21875 4.125,-2 4.3125,-0.78125 2.3125,0.65625 1.59375,-1.375 1.1875,-3.53125 3.15625,0.0312 2.34375,1.125 1.875,2.28125 1.03125,-3.34375 -2.71875,-4.9062 -1.09375,0.3125 -1.21875,-2.09375 1.8125,-1.1875 1.4375,1.15625 2.28125,-0.0625 1.125,-1.1875 -4.875,-3.90625 -1.40625,1.09375 -0.8125,-1.1875 -3.03125,1.5 -4.34375,-3.25 -0.8125,1.125 -1.875,-5.15625 z m -4.34375,2.125 -0.21875,0.65625 -0.46875,1.59375 0.625,1.25 0.34375,-0.375 0.46875,-0.46875 0.15625,-1.84375 -0.90625,-0.8125 z m -14.96875,14.0625 -0.34375,0.0937 -0.875,0.25 0.625,1.5625 0.46875,-0.125 0.59375,-0.15625 0.03125,-1.09375 -0.5,-0.53125 z m -11.65625,2.0625 -0.6875,1.3125 -0.46875,1.1875 0.3125,0 0.78125,0 0.8125,-1.21875 0,-0.53125 -0.03125,-0.75 -0.71875,0 z m 2.15625,1.15625 -1.375,1.0625 0.65625,1.09375 0.375,0 0.96875,0 0.8125,-1.0625 -0.1875,-0.46875 -0.28125,-0.625 -0.96875,0 z m 12.46875,0.34375 -1.3125,2.09375 0.625,0.0625 0.25,-0.1875 0.625,-0.46875 1.28125,-0.0625 0.1875,-0.34375 0.28125,-0.40625 -0.75,-0.6875 -1.1875,0 z m -14.8125,1.71875 -1.1875,1.21875 -0.6875,-0.78125 -0.84375,0.28125 1.25,4.8125 0.90625,0.0625 0.8125,0.75 1.1875,0.28125 0.84375,-1.34375 1.5,0.53125 0.53125,-1.40625 -0.90625,-1.96875 -1.09375,-0.3125 -0.53125,1.125 -0.375,-0.0312 -0.96875,-0.0312 -0.4375,-0.75 0.375,-0.34375 0.46875,-0.4375 -0.03125,-0.9375 -0.8125,-0.71875 z m 8.8125,0.4375 -1.03125,1.1875 0,1.375 0.75,0.1875 0.1875,-0.40625 0.4375,-1 0.96875,0.90625 0.125,-0.375 0.15625,-0.5 -1.59375,-1.375 z m 7.0625,0.125 -1.6875,1.0625 0.5,1.15625 0.4375,0 1.0625,-0.0312 1.75,0.84375 0.3125,-0.59375 0.4375,-0.78125 -0.125,-1.3125 -0.84375,0.4375 -1.84375,-0.78125 z m -24.03125,11.4375 -0.78125,1.1875 0.4375,0.84375 0.25,0 0.5625,0 0.34375,-0.71875 0.03125,-0.40625 0,-0.5625 -0.84375,-0.34375 z m 6.15625,0.0937 -0.71875,0.46875 0,1.8125 0.71875,0.625 0.21875,0.0312 0.5625,0 0.25,-1.21875 -0.0625,-0.40625 -0.0625,-0.5625 -0.90625,-0.75 z m -0.34375,6.125 -1.1875,0.5625 -0.6875,1.15625 0.96875,0.5625 0.21875,-0.15625 0.46875,-0.40625 0.75,-0.5625 -0.21875,-0.5 -0.3125,-0.65625 z m -2.5,4.625 -0.5,0.125 -0.125,1.3125 0.28125,0.5625 0.25,0 0.625,-0.0625 0.21875,-0.375 -0.3125,-0.6562 -0.4375,-0.90625 z m -0.75,7.4375 -0.40625,0.5625 -0.28125,0.8125 0.21875,0.1875 0.46875,0.5 0.9375,-0.53125 -0.03125,-0.21875 -0.03125,-0.34375 -0.875,-0.96875 z" id="pohjanmaa" inkscape:connector-curvature="0"/>
<polygon id="etelakarjala" points="158.094,379.497 159.151,378.865 157.241,376.536 157.916,374.259 160.017,373.478 158.674,370.429 161.509,369.748 163.621,366.061 165.668,365.885 166.89,363.389 169.246,363.442 170.606,361.782 172.839,362.241 179.394,361.67 182.741,357.527 183.74,355.053 185.617,356.485 190.553,356.455 191.191,354.214 195.218,354.395 199.28,353.095 201.787,348.93 204.985,347.848 205.729,345.727 217.544,339.382 217.16,339.773 215.581,344.242 211.613,347.896 208.944,353.501 205.581,355.883 204.822,358.232 199.829,366.65 193.987,370.706 191.897,371.557 189.387,375.854 189.07,378.673 186.37,379.274 181.312,383.702 180.341,386.298 175.316,391.131 172.94,389.916 171.903,387.364 169.755,387.046 168.791,385.09 165.927,385.16 163.398,383.813 162.487,382.213 159.106,381.226 " style="fill:#003880" transform="translate(0.03125,0.02098995)"/>
</svg>
